<mxfile host="app.diagrams.net" modified="2021-04-03T18:52:49.645Z" agent="5.0 (Windows NT 10.0; Win64; x64) AppleWebKit/537.36 (KHTML, like Gecko) Chrome/89.0.4389.116 Safari/537.36" etag="wkY6KsM_PUE8PfdQMw4E" version="14.5.6" type="github">
  <diagram name="Page-1" id="c9db0220-8083-56f3-ca83-edcdcd058819">
    <mxGraphModel dx="1516" dy="824" grid="1" gridSize="10" guides="1" tooltips="1" connect="1" arrows="1" fold="1" page="1" pageScale="1.5" pageWidth="826" pageHeight="1169" background="#ffffff" math="0" shadow="0">
      <root>
        <mxCell id="0" style=";html=1;" />
        <mxCell id="1" style=";html=1;" parent="0" />
        <mxCell id="3d76a8aef4d5c911-1" value="" style="html=1;shadow=0;dashed=0;shape=mxgraph.bootstrap.rect;fillColor=#222222;strokeColor=none;whiteSpace=wrap;rounded=0;fontSize=12;fontColor=#000000;align=center;" parent="1" vertex="1">
          <mxGeometry x="40" y="70" width="1150" height="40" as="geometry" />
        </mxCell>
        <mxCell id="3d76a8aef4d5c911-2" value="FTD Analyzer" style="html=1;shadow=0;dashed=0;fillColor=none;strokeColor=none;shape=mxgraph.bootstrap.rect;fontColor=#999999;fontSize=14;whiteSpace=wrap;" parent="3d76a8aef4d5c911-1" vertex="1">
          <mxGeometry width="115" height="40" as="geometry" />
        </mxCell>
        <mxCell id="3d76a8aef4d5c911-3" value="Favorites" style="html=1;shadow=0;dashed=0;shape=mxgraph.bootstrap.rect;fillColor=#000000;strokeColor=none;fontColor=#ffffff;spacingRight=30;whiteSpace=wrap;" parent="3d76a8aef4d5c911-1" vertex="1">
          <mxGeometry x="115" width="129.375" height="40" as="geometry" />
        </mxCell>
        <mxCell id="3d76a8aef4d5c911-4" value="84" style="html=1;shadow=0;dashed=0;shape=mxgraph.bootstrap.rrect;rSize=8;strokeColor=none;fontColor=#ffffff;whiteSpace=wrap;textOpacity=0;fillColor=none;" parent="3d76a8aef4d5c911-3" vertex="1">
          <mxGeometry x="1" y="0.5" width="25" height="16" relative="1" as="geometry">
            <mxPoint x="-30" y="-8" as="offset" />
          </mxGeometry>
        </mxCell>
        <mxCell id="3d76a8aef4d5c911-5" value="Changelog" style="html=1;shadow=0;dashed=0;fillColor=none;strokeColor=none;shape=mxgraph.bootstrap.rect;fontColor=#999999;spacingRight=30;whiteSpace=wrap;" parent="3d76a8aef4d5c911-1" vertex="1">
          <mxGeometry x="244.375" width="158.125" height="40" as="geometry" />
        </mxCell>
        <mxCell id="3d76a8aef4d5c911-6" value="42" style="html=1;shadow=0;dashed=0;shape=mxgraph.bootstrap.rrect;rSize=8;strokeColor=none;fontColor=#ffffff;whiteSpace=wrap;fillColor=none;textOpacity=0;" parent="3d76a8aef4d5c911-5" vertex="1">
          <mxGeometry x="1" y="0.5" width="25" height="16" relative="1" as="geometry">
            <mxPoint x="-30" y="-8" as="offset" />
          </mxGeometry>
        </mxCell>
        <mxCell id="3d76a8aef4d5c911-7" value="Data Sources" style="html=1;shadow=0;dashed=0;fillColor=none;strokeColor=none;shape=mxgraph.bootstrap.rect;fontColor=#999999;whiteSpace=wrap;" parent="3d76a8aef4d5c911-1" vertex="1">
          <mxGeometry x="402.5" width="137.5" height="40" as="geometry" />
        </mxCell>
        <mxCell id="3d76a8aef4d5c911-8" value="Settings" style="html=1;shadow=0;dashed=0;fillColor=none;strokeColor=none;shape=mxgraph.bootstrap.rect;fontColor=#999999;whiteSpace=wrap;" parent="3d76a8aef4d5c911-1" vertex="1">
          <mxGeometry x="540" width="100.625" height="40" as="geometry" />
        </mxCell>
        <mxCell id="3d76a8aef4d5c911-10" value="Log Out" style="html=1;shadow=0;dashed=0;fillColor=none;strokeColor=none;shape=mxgraph.bootstrap.rect;fontColor=#999999;whiteSpace=wrap;" parent="3d76a8aef4d5c911-1" vertex="1">
          <mxGeometry x="1049.375" width="100.625" height="40" as="geometry" />
        </mxCell>
        <mxCell id="OUFWiJHkfXgs1Zi_MWCu-27" value="Source Code" style="html=1;shadow=0;dashed=0;fillColor=none;strokeColor=none;shape=mxgraph.bootstrap.rect;fontColor=#999999;whiteSpace=wrap;" vertex="1" parent="3d76a8aef4d5c911-1">
          <mxGeometry x="948.755" width="100.625" height="40" as="geometry" />
        </mxCell>
        <mxCell id="3d76a8aef4d5c911-17" value="Add Ticker" style="html=1;shadow=0;dashed=0;shape=mxgraph.bootstrap.rect;strokeColor=none;fillColor=none;fontColor=#999999;align=left;spacingLeft=5;whiteSpace=wrap;rounded=0;" parent="1" vertex="1">
          <mxGeometry x="40" y="140" width="200" height="20" as="geometry" />
        </mxCell>
        <mxCell id="3d76a8aef4d5c911-18" value="GME" style="html=1;shadow=0;dashed=0;shape=mxgraph.bootstrap.rrect;rSize=5;strokeColor=#dddddd;;align=left;spacingLeft=10;fontSize=16;whiteSpace=wrap;rounded=0;" parent="1" vertex="1">
          <mxGeometry x="40" y="160" width="1150" height="40" as="geometry" />
        </mxCell>
        <mxCell id="OUFWiJHkfXgs1Zi_MWCu-1" value="" style="shape=triangle;strokeColor=none;fillColor=#000000;direction=south;rounded=0;shadow=1;fontSize=12;fontColor=#000000;align=center;html=1;" vertex="1" parent="1">
          <mxGeometry x="1170" y="177.5" width="10" height="5" as="geometry" />
        </mxCell>
        <mxCell id="OUFWiJHkfXgs1Zi_MWCu-3" value="" style="html=1;shadow=0;dashed=0;shape=mxgraph.bootstrap.rrect;rSize=5;strokeColor=#DFDFDF;html=1;whiteSpace=wrap;fillColor=#FFFFFF;fontColor=#000000;" vertex="1" parent="1">
          <mxGeometry x="40" y="215" width="1100" height="618" as="geometry" />
        </mxCell>
        <mxCell id="OUFWiJHkfXgs1Zi_MWCu-4" value="&lt;font style=&quot;font-size: 31px&quot;&gt;Favorite Tickers&amp;nbsp; &amp;nbsp; &amp;nbsp; &amp;nbsp; &amp;nbsp; |&amp;nbsp; &amp;nbsp;30D FTD%Vol&amp;nbsp; &amp;nbsp; &amp;nbsp; &amp;nbsp; |&amp;nbsp; 30D&amp;nbsp; &amp;nbsp;FTD%Short_Vol&amp;nbsp;&lt;/font&gt;" style="html=1;shadow=0;dashed=0;shape=mxgraph.bootstrap.topButton;strokeColor=inherit;fillColor=#F7F7F7;rSize=5;perimeter=none;whiteSpace=wrap;resizeWidth=1;align=left;spacing=10;" vertex="1" parent="OUFWiJHkfXgs1Zi_MWCu-3">
          <mxGeometry width="1100" height="40" relative="1" as="geometry">
            <mxPoint as="offset" />
          </mxGeometry>
        </mxCell>
        <mxCell id="OUFWiJHkfXgs1Zi_MWCu-5" value="RKT&amp;nbsp; &amp;nbsp; &amp;nbsp; &amp;nbsp; &amp;nbsp; &amp;nbsp; &amp;nbsp; &amp;nbsp; &amp;nbsp; &amp;nbsp; &amp;nbsp; &amp;nbsp; &amp;nbsp; &amp;nbsp; &amp;nbsp; &amp;nbsp; &amp;nbsp; &amp;nbsp; &amp;nbsp; &amp;nbsp; &amp;nbsp; &amp;nbsp;|&amp;nbsp; &amp;nbsp; &amp;nbsp; &amp;nbsp; &amp;nbsp; &amp;nbsp; &amp;nbsp;XX%&amp;nbsp; &amp;nbsp; &amp;nbsp; &amp;nbsp; &amp;nbsp; &amp;nbsp; &amp;nbsp; &amp;nbsp; &amp;nbsp; &amp;nbsp; &amp;nbsp; &amp;nbsp; &amp;nbsp; &amp;nbsp; |&amp;nbsp; &amp;nbsp; &amp;nbsp; &amp;nbsp; &amp;nbsp; XX%" style="strokeColor=inherit;fillColor=inherit;gradientColor=inherit;fontColor=inherit;html=1;shadow=0;dashed=0;perimeter=none;whiteSpace=wrap;resizeWidth=1;align=left;spacing=10;fontSize=22;" vertex="1" parent="OUFWiJHkfXgs1Zi_MWCu-3">
          <mxGeometry width="1100" height="60" relative="1" as="geometry">
            <mxPoint y="40" as="offset" />
          </mxGeometry>
        </mxCell>
        <mxCell id="3d76a8aef4d5c911-53" value="X" style="html=1;shadow=0;dashed=0;shape=mxgraph.bootstrap.rrect;align=center;rSize=5;strokeColor=none;fillColor=#DB524C;fontColor=#ffffff;fontSize=16;whiteSpace=wrap;rounded=0;" parent="OUFWiJHkfXgs1Zi_MWCu-3" vertex="1">
          <mxGeometry x="1050" y="49.04906635441061" width="40" height="40.524590163934434" as="geometry" />
        </mxCell>
        <mxCell id="OUFWiJHkfXgs1Zi_MWCu-8" value="PLTR&amp;nbsp; &amp;nbsp; &amp;nbsp; &amp;nbsp; &amp;nbsp; &amp;nbsp; &amp;nbsp; &amp;nbsp; &amp;nbsp; &amp;nbsp; &amp;nbsp; &amp;nbsp; &amp;nbsp; &amp;nbsp; &amp;nbsp; &amp;nbsp; &amp;nbsp; &amp;nbsp; &amp;nbsp; &amp;nbsp; &amp;nbsp;|&amp;nbsp; &amp;nbsp; &amp;nbsp; &amp;nbsp; &amp;nbsp; &amp;nbsp; &amp;nbsp;XX%&amp;nbsp; &amp;nbsp; &amp;nbsp; &amp;nbsp; &amp;nbsp; &amp;nbsp; &amp;nbsp; &amp;nbsp; &amp;nbsp; &amp;nbsp; &amp;nbsp; &amp;nbsp; &amp;nbsp; &amp;nbsp; |&amp;nbsp; &amp;nbsp; &amp;nbsp; &amp;nbsp; &amp;nbsp; XX%" style="strokeColor=inherit;fillColor=inherit;gradientColor=inherit;fontColor=inherit;html=1;shadow=0;dashed=0;perimeter=none;whiteSpace=wrap;resizeWidth=1;align=left;spacing=10;fontSize=22;" vertex="1" parent="OUFWiJHkfXgs1Zi_MWCu-3">
          <mxGeometry y="98.09523809523812" width="1100" height="58.857142857142854" as="geometry" />
        </mxCell>
        <mxCell id="OUFWiJHkfXgs1Zi_MWCu-9" value="X" style="html=1;shadow=0;dashed=0;shape=mxgraph.bootstrap.rrect;align=center;rSize=5;strokeColor=none;fillColor=#DB524C;fontColor=#ffffff;fontSize=16;whiteSpace=wrap;rounded=0;" vertex="1" parent="OUFWiJHkfXgs1Zi_MWCu-3">
          <mxGeometry x="1050" y="107.9062092115535" width="40" height="40.524590163934434" as="geometry" />
        </mxCell>
        <mxCell id="OUFWiJHkfXgs1Zi_MWCu-10" value="ABCL&amp;nbsp; &amp;nbsp; &amp;nbsp; &amp;nbsp; &amp;nbsp; &amp;nbsp; &amp;nbsp; &amp;nbsp; &amp;nbsp; &amp;nbsp; &amp;nbsp; &amp;nbsp; &amp;nbsp; &amp;nbsp; &amp;nbsp; &amp;nbsp; &amp;nbsp; &amp;nbsp; &amp;nbsp; &amp;nbsp; &amp;nbsp;|&amp;nbsp; &amp;nbsp; &amp;nbsp; &amp;nbsp; &amp;nbsp; &amp;nbsp; &amp;nbsp;XX%&amp;nbsp; &amp;nbsp; &amp;nbsp; &amp;nbsp; &amp;nbsp; &amp;nbsp; &amp;nbsp; &amp;nbsp; &amp;nbsp; &amp;nbsp; &amp;nbsp; &amp;nbsp; &amp;nbsp; &amp;nbsp; |&amp;nbsp; &amp;nbsp; &amp;nbsp; &amp;nbsp; &amp;nbsp; XX%" style="strokeColor=inherit;fillColor=inherit;gradientColor=inherit;fontColor=inherit;html=1;shadow=0;dashed=0;perimeter=none;whiteSpace=wrap;resizeWidth=1;align=left;spacing=10;fontSize=22;" vertex="1" parent="OUFWiJHkfXgs1Zi_MWCu-3">
          <mxGeometry y="156.95238095238096" width="1100" height="58.857142857142854" as="geometry" />
        </mxCell>
        <mxCell id="OUFWiJHkfXgs1Zi_MWCu-11" value="X" style="html=1;shadow=0;dashed=0;shape=mxgraph.bootstrap.rrect;align=center;rSize=5;strokeColor=none;fillColor=#DB524C;fontColor=#ffffff;fontSize=16;whiteSpace=wrap;rounded=0;" vertex="1" parent="OUFWiJHkfXgs1Zi_MWCu-3">
          <mxGeometry x="1050" y="166.76335206869635" width="40" height="40.524590163934434" as="geometry" />
        </mxCell>
        <mxCell id="OUFWiJHkfXgs1Zi_MWCu-12" value="SPY&amp;nbsp; &amp;nbsp; &amp;nbsp; &amp;nbsp; &amp;nbsp; &amp;nbsp; &amp;nbsp; &amp;nbsp; &amp;nbsp; &amp;nbsp; &amp;nbsp; &amp;nbsp; &amp;nbsp; &amp;nbsp; &amp;nbsp; &amp;nbsp; &amp;nbsp; &amp;nbsp; &amp;nbsp; &amp;nbsp; &amp;nbsp; &amp;nbsp;|&amp;nbsp; &amp;nbsp; &amp;nbsp; &amp;nbsp; &amp;nbsp; &amp;nbsp; &amp;nbsp;XX%&amp;nbsp; &amp;nbsp; &amp;nbsp; &amp;nbsp; &amp;nbsp; &amp;nbsp; &amp;nbsp; &amp;nbsp; &amp;nbsp; &amp;nbsp; &amp;nbsp; &amp;nbsp; &amp;nbsp; &amp;nbsp; |&amp;nbsp; &amp;nbsp; &amp;nbsp; &amp;nbsp; &amp;nbsp; XX%" style="strokeColor=inherit;fillColor=inherit;gradientColor=inherit;fontColor=inherit;html=1;shadow=0;dashed=0;perimeter=none;whiteSpace=wrap;resizeWidth=1;align=left;spacing=10;fontSize=22;" vertex="1" parent="OUFWiJHkfXgs1Zi_MWCu-3">
          <mxGeometry y="215.80952380952377" width="1100" height="58.857142857142854" as="geometry" />
        </mxCell>
        <mxCell id="OUFWiJHkfXgs1Zi_MWCu-13" value="X" style="html=1;shadow=0;dashed=0;shape=mxgraph.bootstrap.rrect;align=center;rSize=5;strokeColor=none;fillColor=#DB524C;fontColor=#ffffff;fontSize=16;whiteSpace=wrap;rounded=0;" vertex="1" parent="OUFWiJHkfXgs1Zi_MWCu-3">
          <mxGeometry x="1050" y="225.62049492583915" width="40" height="40.524590163934434" as="geometry" />
        </mxCell>
        <mxCell id="OUFWiJHkfXgs1Zi_MWCu-14" value="QQQ&amp;nbsp; &amp;nbsp; &amp;nbsp; &amp;nbsp; &amp;nbsp; &amp;nbsp; &amp;nbsp; &amp;nbsp; &amp;nbsp; &amp;nbsp; &amp;nbsp; &amp;nbsp; &amp;nbsp; &amp;nbsp; &amp;nbsp; &amp;nbsp; &amp;nbsp; &amp;nbsp; &amp;nbsp; &amp;nbsp; &amp;nbsp; |&amp;nbsp; &amp;nbsp; &amp;nbsp; &amp;nbsp; &amp;nbsp; &amp;nbsp; &amp;nbsp;XX%&amp;nbsp; &amp;nbsp; &amp;nbsp; &amp;nbsp; &amp;nbsp; &amp;nbsp; &amp;nbsp; &amp;nbsp; &amp;nbsp; &amp;nbsp; &amp;nbsp; &amp;nbsp; &amp;nbsp; &amp;nbsp; |&amp;nbsp; &amp;nbsp; &amp;nbsp; &amp;nbsp; &amp;nbsp; XX%" style="strokeColor=inherit;fillColor=inherit;gradientColor=inherit;fontColor=inherit;html=1;shadow=0;dashed=0;perimeter=none;whiteSpace=wrap;resizeWidth=1;align=left;spacing=10;fontSize=22;" vertex="1" parent="OUFWiJHkfXgs1Zi_MWCu-3">
          <mxGeometry y="274.6666666666665" width="1100" height="58.857142857142854" as="geometry" />
        </mxCell>
        <mxCell id="OUFWiJHkfXgs1Zi_MWCu-15" value="X" style="html=1;shadow=0;dashed=0;shape=mxgraph.bootstrap.rrect;align=center;rSize=5;strokeColor=none;fillColor=#DB524C;fontColor=#ffffff;fontSize=16;whiteSpace=wrap;rounded=0;" vertex="1" parent="OUFWiJHkfXgs1Zi_MWCu-3">
          <mxGeometry x="1050" y="284.4776377829819" width="40" height="40.524590163934434" as="geometry" />
        </mxCell>
        <mxCell id="OUFWiJHkfXgs1Zi_MWCu-16" value="XRT&amp;nbsp; &amp;nbsp; &amp;nbsp; &amp;nbsp; &amp;nbsp; &amp;nbsp; &amp;nbsp; &amp;nbsp; &amp;nbsp; &amp;nbsp; &amp;nbsp; &amp;nbsp; &amp;nbsp; &amp;nbsp; &amp;nbsp; &amp;nbsp; &amp;nbsp; &amp;nbsp; &amp;nbsp; &amp;nbsp; &amp;nbsp; &amp;nbsp;|&amp;nbsp; &amp;nbsp; &amp;nbsp; &amp;nbsp; &amp;nbsp; &amp;nbsp; &amp;nbsp;XX%&amp;nbsp; &amp;nbsp; &amp;nbsp; &amp;nbsp; &amp;nbsp; &amp;nbsp; &amp;nbsp; &amp;nbsp; &amp;nbsp; &amp;nbsp; &amp;nbsp; &amp;nbsp; &amp;nbsp; &amp;nbsp; |&amp;nbsp; &amp;nbsp; &amp;nbsp; &amp;nbsp; &amp;nbsp; XX%" style="strokeColor=inherit;fillColor=inherit;gradientColor=inherit;fontColor=inherit;html=1;shadow=0;dashed=0;perimeter=none;whiteSpace=wrap;resizeWidth=1;align=left;spacing=10;fontSize=22;" vertex="1" parent="OUFWiJHkfXgs1Zi_MWCu-3">
          <mxGeometry y="333.52380952380963" width="1100" height="58.857142857142854" as="geometry" />
        </mxCell>
        <mxCell id="OUFWiJHkfXgs1Zi_MWCu-17" value="X" style="html=1;shadow=0;dashed=0;shape=mxgraph.bootstrap.rrect;align=center;rSize=5;strokeColor=none;fillColor=#DB524C;fontColor=#ffffff;fontSize=16;whiteSpace=wrap;rounded=0;" vertex="1" parent="OUFWiJHkfXgs1Zi_MWCu-3">
          <mxGeometry x="1050" y="343.334780640125" width="40" height="40.524590163934434" as="geometry" />
        </mxCell>
        <mxCell id="OUFWiJHkfXgs1Zi_MWCu-19" value="QS&amp;nbsp; &amp;nbsp; &amp;nbsp; &amp;nbsp; &amp;nbsp; &amp;nbsp; &amp;nbsp; &amp;nbsp; &amp;nbsp; &amp;nbsp; &amp;nbsp; &amp;nbsp; &amp;nbsp; &amp;nbsp; &amp;nbsp; &amp;nbsp; &amp;nbsp; &amp;nbsp; &amp;nbsp; &amp;nbsp; &amp;nbsp; &amp;nbsp; &amp;nbsp;|&amp;nbsp; &amp;nbsp; &amp;nbsp; &amp;nbsp; &amp;nbsp; &amp;nbsp; &amp;nbsp;XX%&amp;nbsp; &amp;nbsp; &amp;nbsp; &amp;nbsp; &amp;nbsp; &amp;nbsp; &amp;nbsp; &amp;nbsp; &amp;nbsp; &amp;nbsp; &amp;nbsp; &amp;nbsp; &amp;nbsp; &amp;nbsp; |&amp;nbsp; &amp;nbsp; &amp;nbsp; &amp;nbsp; &amp;nbsp; XX%" style="strokeColor=inherit;fillColor=inherit;gradientColor=inherit;fontColor=inherit;html=1;shadow=0;dashed=0;perimeter=none;whiteSpace=wrap;resizeWidth=1;align=left;spacing=10;fontSize=22;" vertex="1" parent="OUFWiJHkfXgs1Zi_MWCu-3">
          <mxGeometry y="392.38" width="1100" height="60" as="geometry" />
        </mxCell>
        <mxCell id="OUFWiJHkfXgs1Zi_MWCu-20" value="X" style="html=1;shadow=0;dashed=0;shape=mxgraph.bootstrap.rrect;align=center;rSize=5;strokeColor=none;fillColor=#DB524C;fontColor=#ffffff;fontSize=16;whiteSpace=wrap;rounded=0;" vertex="1" parent="OUFWiJHkfXgs1Zi_MWCu-3">
          <mxGeometry x="1050" y="401.4290663544107" width="40" height="40.524590163934434" as="geometry" />
        </mxCell>
        <mxCell id="OUFWiJHkfXgs1Zi_MWCu-21" value="GOOG&amp;nbsp; &amp;nbsp; &amp;nbsp; &amp;nbsp; &amp;nbsp; &amp;nbsp; &amp;nbsp; &amp;nbsp; &amp;nbsp; &amp;nbsp; &amp;nbsp; &amp;nbsp; &amp;nbsp; &amp;nbsp; &amp;nbsp; &amp;nbsp; &amp;nbsp; &amp;nbsp; &amp;nbsp; &amp;nbsp;|&amp;nbsp; &amp;nbsp; &amp;nbsp; &amp;nbsp; &amp;nbsp; &amp;nbsp; &amp;nbsp;XX%&amp;nbsp; &amp;nbsp; &amp;nbsp; &amp;nbsp; &amp;nbsp; &amp;nbsp; &amp;nbsp; &amp;nbsp; &amp;nbsp; &amp;nbsp; &amp;nbsp; &amp;nbsp; &amp;nbsp; &amp;nbsp; |&amp;nbsp; &amp;nbsp; &amp;nbsp; &amp;nbsp; &amp;nbsp; XX%" style="strokeColor=inherit;fillColor=inherit;gradientColor=inherit;fontColor=inherit;html=1;shadow=0;dashed=0;perimeter=none;whiteSpace=wrap;resizeWidth=1;align=left;spacing=10;fontSize=22;" vertex="1" parent="OUFWiJHkfXgs1Zi_MWCu-3">
          <mxGeometry y="452.38" width="1100" height="60" as="geometry" />
        </mxCell>
        <mxCell id="OUFWiJHkfXgs1Zi_MWCu-22" value="X" style="html=1;shadow=0;dashed=0;shape=mxgraph.bootstrap.rrect;align=center;rSize=5;strokeColor=none;fillColor=#DB524C;fontColor=#ffffff;fontSize=16;whiteSpace=wrap;rounded=0;" vertex="1" parent="OUFWiJHkfXgs1Zi_MWCu-3">
          <mxGeometry x="1050" y="461.4290663544107" width="40" height="40.524590163934434" as="geometry" />
        </mxCell>
        <mxCell id="OUFWiJHkfXgs1Zi_MWCu-23" value="AAPL&amp;nbsp; &amp;nbsp; &amp;nbsp; &amp;nbsp; &amp;nbsp; &amp;nbsp; &amp;nbsp; &amp;nbsp; &amp;nbsp; &amp;nbsp; &amp;nbsp; &amp;nbsp; &amp;nbsp; &amp;nbsp; &amp;nbsp; &amp;nbsp; &amp;nbsp; &amp;nbsp; &amp;nbsp; &amp;nbsp; &amp;nbsp;|&amp;nbsp; &amp;nbsp; &amp;nbsp; &amp;nbsp; &amp;nbsp; &amp;nbsp; &amp;nbsp;XX%&amp;nbsp; &amp;nbsp; &amp;nbsp; &amp;nbsp; &amp;nbsp; &amp;nbsp; &amp;nbsp; &amp;nbsp; &amp;nbsp; &amp;nbsp; &amp;nbsp; &amp;nbsp; &amp;nbsp; &amp;nbsp; |&amp;nbsp; &amp;nbsp; &amp;nbsp; &amp;nbsp; &amp;nbsp; XX%" style="strokeColor=inherit;fillColor=inherit;gradientColor=inherit;fontColor=inherit;html=1;shadow=0;dashed=0;perimeter=none;whiteSpace=wrap;resizeWidth=1;align=left;spacing=10;fontSize=22;" vertex="1" parent="OUFWiJHkfXgs1Zi_MWCu-3">
          <mxGeometry y="512.38" width="1100" height="60" as="geometry" />
        </mxCell>
        <mxCell id="OUFWiJHkfXgs1Zi_MWCu-24" value="X" style="html=1;shadow=0;dashed=0;shape=mxgraph.bootstrap.rrect;align=center;rSize=5;strokeColor=none;fillColor=#DB524C;fontColor=#ffffff;fontSize=16;whiteSpace=wrap;rounded=0;" vertex="1" parent="OUFWiJHkfXgs1Zi_MWCu-3">
          <mxGeometry x="1050" y="521.4290663544107" width="40" height="40.524590163934434" as="geometry" />
        </mxCell>
        <mxCell id="OUFWiJHkfXgs1Zi_MWCu-25" value="Latest Site Update: April 5, 2021" style="html=1;shadow=0;dashed=0;shape=mxgraph.bootstrap.rect;strokeColor=none;fillColor=none;fontColor=#999999;align=left;spacingLeft=5;whiteSpace=wrap;rounded=0;" vertex="1" parent="1">
          <mxGeometry x="990" y="110" width="200" height="20" as="geometry" />
        </mxCell>
        <mxCell id="OUFWiJHkfXgs1Zi_MWCu-26" value="Latest SEC FTD Data: Jan 1, 2021" style="html=1;shadow=0;dashed=0;shape=mxgraph.bootstrap.rect;strokeColor=none;fillColor=none;fontColor=#999999;align=left;spacingLeft=5;whiteSpace=wrap;rounded=0;" vertex="1" parent="1">
          <mxGeometry x="990" y="130" width="200" height="20" as="geometry" />
        </mxCell>
      </root>
    </mxGraphModel>
  </diagram>
</mxfile>
